<mxfile host="Electron" agent="Mozilla/5.0 (X11; Linux x86_64) AppleWebKit/537.36 (KHTML, like Gecko) draw.io/24.7.17 Chrome/128.0.6613.36 Electron/32.0.1 Safari/537.36" version="24.7.17">
  <diagram name="Page-1" id="LLoZbdwive69lZynaNz4">
    <mxGraphModel dx="2073" dy="838" grid="1" gridSize="10" guides="1" tooltips="1" connect="1" arrows="1" fold="1" page="1" pageScale="1" pageWidth="827" pageHeight="1169" math="0" shadow="0">
      <root>
        <mxCell id="0" />
        <mxCell id="1" parent="0" />
        <mxCell id="QytKlKue94JW8yu2h9y7-1" value="Feathers app" style="rounded=1;whiteSpace=wrap;html=1;verticalAlign=top;" vertex="1" parent="1">
          <mxGeometry x="130" y="30" width="220" height="310" as="geometry" />
        </mxCell>
        <mxCell id="QytKlKue94JW8yu2h9y7-2" value="&lt;b&gt;Automerge Service&lt;/b&gt;&lt;div&gt;&lt;br&gt;&lt;/div&gt;&lt;div&gt;Manages documents&lt;/div&gt;" style="rounded=1;whiteSpace=wrap;html=1;verticalAlign=top;" vertex="1" parent="1">
          <mxGeometry x="220" y="260" width="120" height="60" as="geometry" />
        </mxCell>
        <mxCell id="QytKlKue94JW8yu2h9y7-7" value="Automerge app" style="rounded=1;whiteSpace=wrap;html=1;verticalAlign=top;" vertex="1" parent="1">
          <mxGeometry x="466" y="30" width="244" height="310" as="geometry" />
        </mxCell>
        <mxCell id="QytKlKue94JW8yu2h9y7-8" value="&lt;b&gt;Automerge document&lt;/b&gt;&lt;div&gt;&lt;br&gt;&lt;/div&gt;&lt;div&gt;Service document items&lt;/div&gt;" style="rounded=1;whiteSpace=wrap;html=1;verticalAlign=top;" vertex="1" parent="1">
          <mxGeometry x="200" y="400" width="150" height="60" as="geometry" />
        </mxCell>
        <mxCell id="QytKlKue94JW8yu2h9y7-9" value="&lt;b&gt;Automerge document&lt;/b&gt;&lt;div&gt;&lt;br&gt;&lt;/div&gt;&lt;div&gt;Service1 items&lt;/div&gt;" style="rounded=1;whiteSpace=wrap;html=1;verticalAlign=top;" vertex="1" parent="1">
          <mxGeometry x="800" y="61" width="150" height="60" as="geometry" />
        </mxCell>
        <mxCell id="QytKlKue94JW8yu2h9y7-10" value="&lt;b&gt;Automerge document&lt;/b&gt;&lt;div&gt;&lt;br&gt;&lt;/div&gt;&lt;div&gt;Service N items&lt;/div&gt;" style="rounded=1;whiteSpace=wrap;html=1;verticalAlign=top;" vertex="1" parent="1">
          <mxGeometry x="800" y="165" width="150" height="60" as="geometry" />
        </mxCell>
        <mxCell id="QytKlKue94JW8yu2h9y7-12" value="" style="endArrow=classic;startArrow=classic;html=1;rounded=0;entryX=0.5;entryY=1;entryDx=0;entryDy=0;exitX=0.5;exitY=0;exitDx=0;exitDy=0;" edge="1" parent="1" source="QytKlKue94JW8yu2h9y7-8" target="QytKlKue94JW8yu2h9y7-2">
          <mxGeometry width="50" height="50" relative="1" as="geometry">
            <mxPoint x="450" y="460" as="sourcePoint" />
            <mxPoint x="500" y="410" as="targetPoint" />
          </mxGeometry>
        </mxCell>
        <mxCell id="QytKlKue94JW8yu2h9y7-14" value="Automerge Service 1" style="rounded=1;whiteSpace=wrap;html=1;verticalAlign=top;" vertex="1" parent="1">
          <mxGeometry x="508" y="78" width="150" height="30" as="geometry" />
        </mxCell>
        <mxCell id="QytKlKue94JW8yu2h9y7-15" value="Automerge Service N" style="rounded=1;whiteSpace=wrap;html=1;verticalAlign=top;" vertex="1" parent="1">
          <mxGeometry x="510" y="180" width="150" height="30" as="geometry" />
        </mxCell>
        <mxCell id="QytKlKue94JW8yu2h9y7-16" value="" style="endArrow=classic;startArrow=classic;html=1;rounded=0;entryX=1;entryY=0.5;entryDx=0;entryDy=0;exitX=0;exitY=0.5;exitDx=0;exitDy=0;" edge="1" parent="1" source="QytKlKue94JW8yu2h9y7-9" target="QytKlKue94JW8yu2h9y7-14">
          <mxGeometry width="50" height="50" relative="1" as="geometry">
            <mxPoint x="180" y="480" as="sourcePoint" />
            <mxPoint x="230" y="330" as="targetPoint" />
          </mxGeometry>
        </mxCell>
        <mxCell id="QytKlKue94JW8yu2h9y7-17" value="" style="endArrow=classic;startArrow=classic;html=1;rounded=0;entryX=1;entryY=0.5;entryDx=0;entryDy=0;exitX=0;exitY=0.5;exitDx=0;exitDy=0;" edge="1" parent="1" source="QytKlKue94JW8yu2h9y7-10" target="QytKlKue94JW8yu2h9y7-15">
          <mxGeometry width="50" height="50" relative="1" as="geometry">
            <mxPoint x="190" y="490" as="sourcePoint" />
            <mxPoint x="240" y="340" as="targetPoint" />
          </mxGeometry>
        </mxCell>
        <mxCell id="QytKlKue94JW8yu2h9y7-18" value="Adapter Service 1" style="rounded=1;whiteSpace=wrap;html=1;verticalAlign=top;" vertex="1" parent="1">
          <mxGeometry x="155" y="80" width="150" height="30" as="geometry" />
        </mxCell>
        <mxCell id="QytKlKue94JW8yu2h9y7-19" value="Adapter Service N" style="rounded=1;whiteSpace=wrap;html=1;verticalAlign=top;" vertex="1" parent="1">
          <mxGeometry x="155" y="180" width="150" height="30" as="geometry" />
        </mxCell>
        <mxCell id="QytKlKue94JW8yu2h9y7-20" value="" style="endArrow=classic;startArrow=classic;html=1;rounded=0;entryX=0;entryY=0.5;entryDx=0;entryDy=0;exitX=1;exitY=0.5;exitDx=0;exitDy=0;" edge="1" parent="1" source="QytKlKue94JW8yu2h9y7-18" target="QytKlKue94JW8yu2h9y7-14">
          <mxGeometry width="50" height="50" relative="1" as="geometry">
            <mxPoint x="180" y="480" as="sourcePoint" />
            <mxPoint x="230" y="330" as="targetPoint" />
          </mxGeometry>
        </mxCell>
        <mxCell id="QytKlKue94JW8yu2h9y7-22" value="service events" style="edgeLabel;html=1;align=center;verticalAlign=middle;resizable=0;points=[];" vertex="1" connectable="0" parent="QytKlKue94JW8yu2h9y7-20">
          <mxGeometry x="0.0733" y="1" relative="1" as="geometry">
            <mxPoint as="offset" />
          </mxGeometry>
        </mxCell>
        <mxCell id="QytKlKue94JW8yu2h9y7-21" value="" style="endArrow=classic;startArrow=classic;html=1;rounded=0;entryX=0;entryY=0.5;entryDx=0;entryDy=0;exitX=1;exitY=0.5;exitDx=0;exitDy=0;" edge="1" parent="1" source="QytKlKue94JW8yu2h9y7-19" target="QytKlKue94JW8yu2h9y7-15">
          <mxGeometry width="50" height="50" relative="1" as="geometry">
            <mxPoint x="190" y="490" as="sourcePoint" />
            <mxPoint x="240" y="340" as="targetPoint" />
          </mxGeometry>
        </mxCell>
        <mxCell id="QytKlKue94JW8yu2h9y7-23" value="service events" style="edgeLabel;html=1;align=center;verticalAlign=middle;resizable=0;points=[];" vertex="1" connectable="0" parent="QytKlKue94JW8yu2h9y7-21">
          <mxGeometry x="0.0341" y="2" relative="1" as="geometry">
            <mxPoint as="offset" />
          </mxGeometry>
        </mxCell>
        <mxCell id="QytKlKue94JW8yu2h9y7-25" value="&lt;b&gt;MongoDB collection&lt;/b&gt;&lt;div&gt;&lt;br&gt;&lt;/div&gt;&lt;div&gt;Service1 items&lt;/div&gt;" style="rounded=1;whiteSpace=wrap;html=1;verticalAlign=top;" vertex="1" parent="1">
          <mxGeometry x="-150" y="65" width="150" height="60" as="geometry" />
        </mxCell>
        <mxCell id="QytKlKue94JW8yu2h9y7-26" value="&lt;b&gt;MongoDB collection&lt;/b&gt;&lt;div&gt;&lt;br&gt;&lt;/div&gt;&lt;div&gt;Service1 items&lt;/div&gt;" style="rounded=1;whiteSpace=wrap;html=1;verticalAlign=top;" vertex="1" parent="1">
          <mxGeometry x="-150" y="165" width="150" height="60" as="geometry" />
        </mxCell>
        <mxCell id="QytKlKue94JW8yu2h9y7-27" value="" style="endArrow=classic;startArrow=classic;html=1;rounded=0;exitX=0;exitY=0.5;exitDx=0;exitDy=0;" edge="1" parent="1" source="QytKlKue94JW8yu2h9y7-18" target="QytKlKue94JW8yu2h9y7-25">
          <mxGeometry width="50" height="50" relative="1" as="geometry">
            <mxPoint x="810" y="101" as="sourcePoint" />
            <mxPoint x="668" y="103" as="targetPoint" />
          </mxGeometry>
        </mxCell>
        <mxCell id="QytKlKue94JW8yu2h9y7-28" value="" style="endArrow=classic;startArrow=classic;html=1;rounded=0;exitX=0;exitY=0.5;exitDx=0;exitDy=0;entryX=1;entryY=0.5;entryDx=0;entryDy=0;" edge="1" parent="1" source="QytKlKue94JW8yu2h9y7-19" target="QytKlKue94JW8yu2h9y7-26">
          <mxGeometry width="50" height="50" relative="1" as="geometry">
            <mxPoint x="155" y="194.5" as="sourcePoint" />
            <mxPoint y="194.5" as="targetPoint" />
          </mxGeometry>
        </mxCell>
        <mxCell id="QytKlKue94JW8yu2h9y7-29" value="" style="curved=1;endArrow=classic;html=1;rounded=0;exitX=1;exitY=0.5;exitDx=0;exitDy=0;entryX=0.5;entryY=1;entryDx=0;entryDy=0;" edge="1" parent="1" source="QytKlKue94JW8yu2h9y7-8" target="QytKlKue94JW8yu2h9y7-10">
          <mxGeometry width="50" height="50" relative="1" as="geometry">
            <mxPoint x="390" y="340" as="sourcePoint" />
            <mxPoint x="440" y="290" as="targetPoint" />
            <Array as="points">
              <mxPoint x="440" y="340" />
              <mxPoint x="860" y="490" />
            </Array>
          </mxGeometry>
        </mxCell>
        <mxCell id="QytKlKue94JW8yu2h9y7-30" value="" style="curved=1;endArrow=classic;html=1;rounded=0;exitX=1;exitY=0.5;exitDx=0;exitDy=0;entryX=1;entryY=0.5;entryDx=0;entryDy=0;" edge="1" parent="1" source="QytKlKue94JW8yu2h9y7-8" target="QytKlKue94JW8yu2h9y7-9">
          <mxGeometry width="50" height="50" relative="1" as="geometry">
            <mxPoint x="360" y="440" as="sourcePoint" />
            <mxPoint x="885" y="235" as="targetPoint" />
            <Array as="points">
              <mxPoint x="450" y="350" />
              <mxPoint x="870" y="500" />
              <mxPoint x="1020" y="310" />
            </Array>
          </mxGeometry>
        </mxCell>
        <mxCell id="QytKlKue94JW8yu2h9y7-31" value="doc handles" style="edgeLabel;html=1;align=center;verticalAlign=middle;resizable=0;points=[];" vertex="1" connectable="0" parent="QytKlKue94JW8yu2h9y7-30">
          <mxGeometry x="-0.6605" y="-23" relative="1" as="geometry">
            <mxPoint as="offset" />
          </mxGeometry>
        </mxCell>
      </root>
    </mxGraphModel>
  </diagram>
</mxfile>
